<svg width="61" height="61" viewBox="0 0 61 61" fill="none" xmlns="http://www.w3.org/2000/svg">
<g clip-path="url(#clip0_2103_4275)">
<g clip-path="url(#clip1_2103_4275)">
<path fill-rule="evenodd" clip-rule="evenodd" d="M27.5795 48.8802C17.0892 47.1043 9.08765 37.9634 9.08765 26.9692C9.08765 14.7043 19.0452 4.74683 31.31 4.74683C43.5749 4.74683 53.5324 14.7043 53.5324 26.9692C53.5324 37.9634 45.5309 47.1043 35.0406 48.8802L31.31 57.2731L27.5795 48.8802ZM31.31 18.8889C35.7698 18.8889 39.3915 22.5095 39.3915 26.9692C39.3915 31.4289 35.7698 35.0508 31.31 35.0508C26.8503 35.0508 23.2285 31.4289 23.2285 26.9692C23.2285 22.5095 26.8503 18.8889 31.31 18.8889Z" fill="#FDF0EA"/>
<path fill-rule="evenodd" clip-rule="evenodd" d="M36.8625 22.8416C37.6696 23.9632 38.1458 25.3398 38.1458 26.8267C38.1458 30.598 35.0831 33.6608 31.3118 33.6608C27.5405 33.6608 24.4778 30.598 24.4778 26.8267C24.4778 23.0555 27.5405 19.9927 31.3118 19.9927C32.4187 19.9927 33.4646 20.2566 34.3893 20.7248C35.0052 21.0364 35.7593 20.7894 36.0709 20.1728C36.3826 19.5569 36.1356 18.8035 35.519 18.4918C34.2548 17.8517 32.8252 17.4908 31.3118 17.4908C26.1587 17.4908 21.9758 21.6737 21.9758 26.8267C21.9758 31.9798 26.1587 36.1627 31.3118 36.1627C36.4649 36.1627 40.6478 31.9798 40.6478 26.8267C40.6478 24.7945 39.9973 22.9129 38.8933 21.3797C38.4898 20.8188 37.707 20.6917 37.147 21.0952C36.5862 21.4987 36.459 22.2808 36.8625 22.8416Z" fill="#EB662B"/>
<path fill-rule="evenodd" clip-rule="evenodd" d="M13.3478 37.8414C11.28 34.5922 10.0825 30.7372 10.0825 26.6056C10.0825 15.0366 19.4766 5.6424 31.0456 5.6424C42.6146 5.6424 52.0088 15.0366 52.0088 26.6056C52.0088 36.9771 44.4624 45.5998 34.5654 47.2739C34.1535 47.3445 33.8021 47.6152 33.6325 47.9988L31.0456 53.8187L28.4588 47.9988C28.2892 47.6152 27.9378 47.3445 27.5258 47.2739C24.1797 46.7084 21.1043 45.3474 18.4973 43.3947C17.946 42.9807 17.1604 43.0938 16.7465 43.645C16.3345 44.1984 16.4456 44.9819 16.9989 45.3959C19.7432 47.4516 22.954 48.9217 26.4435 49.6163C26.4415 49.6163 29.9027 57.4031 29.9027 57.4031C30.1046 57.8554 30.5509 58.1462 31.0456 58.1462C31.5404 58.1462 31.9867 57.8554 32.1886 57.4031L35.6498 49.6163C46.3969 47.4758 54.5087 37.9807 54.5087 26.6056C54.5087 13.6553 43.9959 3.14246 31.0456 3.14246C18.0954 3.14246 7.58252 13.6553 7.58252 26.6056C7.58252 31.232 8.92535 35.5474 11.2396 39.1843C11.6111 39.7659 12.3846 39.9375 12.9662 39.568C13.5477 39.1964 13.7194 38.423 13.3478 37.8414Z" fill="#EB662B"/>
<path d="M14.7387 42.9367C15.4294 42.9367 15.9893 42.3768 15.9893 41.6861C15.9893 40.9954 15.4294 40.4355 14.7387 40.4355C14.048 40.4355 13.4881 40.9954 13.4881 41.6861C13.4881 42.3768 14.048 42.9367 14.7387 42.9367Z" fill="#EB662B"/>
</g>
</g>
<defs>
<clipPath id="clip0_2103_4275">
<rect width="60" height="60" fill="white" transform="translate(0.97998 0.589966)"/>
</clipPath>
<clipPath id="clip1_2103_4275">
<rect width="60" height="60" fill="white" transform="translate(0.97998 0.589966)"/>
</clipPath>
</defs>
</svg>
