<svg width="61" height="61" viewBox="0 0 61 61" fill="none" xmlns="http://www.w3.org/2000/svg">
<g clip-path="url(#clip0_2103_4285)">
<g clip-path="url(#clip1_2103_4285)">
<path d="M30.9502 56.5981C45.4549 56.5981 57.2133 44.8397 57.2133 30.3349C57.2133 15.8302 45.4549 4.07178 30.9502 4.07178C16.4454 4.07178 4.68701 15.8302 4.68701 30.3349C4.68701 44.8397 16.4454 56.5981 30.9502 56.5981Z" fill="white"/>
<path d="M30.9501 31.5856C36.4757 31.5856 40.9551 27.1062 40.9551 21.5806C40.9551 16.055 36.4757 11.5756 30.9501 11.5756C25.4245 11.5756 20.9451 16.055 20.9451 21.5806C20.9451 27.1062 25.4245 31.5856 30.9501 31.5856Z" fill="#FDF0EA"/>
<path fill-rule="evenodd" clip-rule="evenodd" d="M51.365 48.2486C46.9003 51.7554 37.4668 57.003 31.355 57.003C25.2432 57.003 15.8097 51.7554 11.345 48.2486C12.2492 40.1533 22.9308 36.993 31.355 36.993C39.7792 36.993 50.4608 40.1533 51.365 48.2486Z" fill="#FDF0EA"/>
<path d="M5.20007 36.8491C5.89035 36.8491 6.44994 36.2895 6.44994 35.5993C6.44994 34.909 5.89035 34.3494 5.20007 34.3494C4.50979 34.3494 3.9502 34.909 3.9502 35.5993C3.9502 36.2895 4.50979 36.8491 5.20007 36.8491Z" fill="#EB662B"/>
<path fill-rule="evenodd" clip-rule="evenodd" d="M9.64423 47.6334C7.79705 45.2647 6.33004 42.5872 5.3333 39.6907C5.10818 39.0379 5.45585 38.3263 6.10868 38.1012C6.76025 37.8773 7.4731 38.2237 7.69822 38.8765C8.43734 41.0251 9.46165 43.0411 10.7248 44.8795C15.7923 39.273 23.141 35.7425 31.3551 35.7425C39.5692 35.7425 46.9178 39.273 51.9854 44.8795C54.7492 40.8563 56.3676 35.9864 56.3676 30.74C56.3676 26.5291 55.3245 22.5596 53.4836 19.0766C53.1609 18.4663 53.3949 17.7085 54.0052 17.3858C54.6155 17.0644 55.3721 17.297 55.6947 17.9073C57.7207 21.7392 58.8688 26.1064 58.8688 30.74C58.8688 37.1082 56.7015 42.9736 53.0634 47.6372C53.0509 47.6547 53.0372 47.6722 53.0234 47.6885C47.9859 54.1192 40.1495 58.2537 31.3551 58.2537C22.5619 58.2537 14.7281 54.1204 9.68926 47.6922C9.67425 47.6734 9.65798 47.6534 9.64423 47.6334ZM50.4371 46.9043C45.8186 41.6017 38.9989 38.2437 31.3551 38.2437C23.7113 38.2437 16.8916 41.6017 12.273 46.9043C16.8628 52.3158 23.7113 55.7525 31.3551 55.7525C38.9989 55.7525 45.8473 52.3158 50.4371 46.9043ZM6.37004 31.9318C6.40255 32.6209 5.86983 33.2075 5.17949 33.24C4.49039 33.2725 3.90387 32.7385 3.8726 32.0494C3.85134 31.6154 3.84131 31.179 3.84131 30.74C3.84131 15.5549 16.17 3.2262 31.3551 3.2262C40.5084 3.2262 48.625 7.70595 53.6275 14.5907C54.0327 15.1497 53.9089 15.9326 53.3511 16.3378C52.7921 16.743 52.0091 16.6192 51.6039 16.0614C47.0554 9.80074 39.678 5.72745 31.3551 5.72745C17.5507 5.72745 6.34256 16.9356 6.34256 30.74C6.34256 31.1389 6.35253 31.5366 6.37004 31.9318ZM31.3551 10.73C37.5669 10.73 42.6107 15.7738 42.6107 21.9856C42.6107 28.1975 37.5669 33.2412 31.3551 33.2412C25.1432 33.2412 20.0995 28.1975 20.0995 21.9856C20.0995 15.7738 25.1432 10.73 31.3551 10.73ZM31.3551 13.2312C26.5239 13.2312 22.6007 17.1544 22.6007 21.9856C22.6007 26.8168 26.5239 30.74 31.3551 30.74C36.1862 30.74 40.1095 26.8168 40.1095 21.9856C40.1095 17.1544 36.1862 13.2312 31.3551 13.2312Z" fill="#EB662B"/>
</g>
</g>
<defs>
<clipPath id="clip0_2103_4285">
<rect width="60" height="60" fill="white" transform="translate(0.97998 0.589966)"/>
</clipPath>
<clipPath id="clip1_2103_4285">
<rect width="60" height="60" fill="white" transform="translate(0.97998 0.589966)"/>
</clipPath>
</defs>
</svg>
