<svg width="61" height="61" viewBox="0 0 61 61" fill="none" xmlns="http://www.w3.org/2000/svg">
<g clip-path="url(#clip0_2103_4296)">
<g clip-path="url(#clip1_2103_4296)">
<path fill-rule="evenodd" clip-rule="evenodd" d="M10.2727 54.6654C7.2743 54.1577 4.98682 51.5451 4.98682 48.4024C4.98682 44.8964 7.83331 42.0499 11.3393 42.0499C14.8453 42.0499 17.6918 44.8964 17.6918 48.4024C17.6918 51.5451 15.4043 54.1577 12.406 54.6654L11.3393 57.0649L10.2727 54.6654Z" fill="#FDF0EA"/>
<path fill-rule="evenodd" clip-rule="evenodd" d="M50.0808 17.1655C47.0824 16.6578 44.7949 14.0452 44.7949 10.9025C44.7949 7.39643 47.6414 4.54993 51.1474 4.54993C54.6534 4.54993 57.4999 7.39643 57.4999 10.9025C57.4999 14.0452 55.2125 16.6578 52.2141 17.1655L51.1474 19.565L50.0808 17.1655Z" fill="#FDF0EA"/>
<path fill-rule="evenodd" clip-rule="evenodd" d="M9.38676 55.7523L10.1958 57.5731C10.3968 58.0247 10.845 58.3164 11.3393 58.3164C11.8337 58.3164 12.2818 58.0247 12.4828 57.5731L13.2918 55.7523C16.5432 54.8901 18.9433 51.9246 18.9433 48.4024C18.9433 44.2057 15.536 40.7985 11.3393 40.7985C7.1426 40.7985 3.73535 44.2057 3.73535 48.4024C3.73535 51.924 6.13543 54.8895 9.38676 55.7523ZM11.3393 54.0117C11.1522 53.7056 10.8403 53.4925 10.4817 53.4319C8.07354 53.0242 6.23823 50.9261 6.23823 48.4024C6.23823 45.5871 8.52398 43.3014 11.3393 43.3014C14.1546 43.3014 16.4404 45.5871 16.4404 48.4024C16.4404 50.9261 14.6051 53.0242 12.1969 53.4319C11.8383 53.4925 11.5264 53.7056 11.3393 54.0117Z" fill="#EB662B"/>
<path fill-rule="evenodd" clip-rule="evenodd" d="M51.1474 16.5117C50.9603 16.2056 50.6485 15.9925 50.2898 15.9319C47.8817 15.5242 46.0464 13.4261 46.0464 10.9024C46.0464 8.08708 48.3321 5.80133 51.1474 5.80133C51.7405 5.80133 52.3099 5.9024 52.8401 6.08894C53.4915 6.3182 54.2064 5.97574 54.4357 5.32432C54.665 4.6729 54.3225 3.95795 53.6711 3.72811C52.8811 3.45033 52.0316 3.29846 51.1474 3.29846C46.9507 3.29846 43.5435 6.7057 43.5435 10.9024C43.5435 14.4246 45.9441 17.3901 49.1955 18.2529L50.004 20.0731C50.2049 20.5247 50.6531 20.8164 51.1474 20.8164C51.6418 20.8164 52.0899 20.5247 52.2909 20.0731L53.1 18.2523C56.3513 17.3901 58.7514 14.4246 58.7514 10.9024C58.7514 9.35123 58.2859 7.90863 57.4872 6.70512C57.1055 6.12993 56.3282 5.97228 55.753 6.35458C55.1778 6.73631 55.0201 7.51304 55.4019 8.08881C55.9372 8.89558 56.2485 9.86289 56.2485 10.9024C56.2485 13.4261 54.4132 15.5242 52.005 15.9319C51.6464 15.9925 51.3345 16.2056 51.1474 16.5117Z" fill="#EB662B"/>
<path fill-rule="evenodd" clip-rule="evenodd" d="M20.1443 58.1188H22.6455C23.3359 58.1188 23.8962 57.5585 23.8962 56.8682C23.8962 56.1778 23.3359 55.6175 22.6455 55.6175H20.1443C19.4539 55.6175 18.8937 56.1778 18.8937 56.8682C18.8937 57.5585 19.4539 58.1188 20.1443 58.1188ZM30.1493 58.1188H39.529C46.091 58.1188 51.4099 52.7999 51.4099 46.2379C51.4099 43.0863 50.1581 40.0648 47.9307 37.8362C45.7021 35.6088 42.6806 34.3569 39.529 34.3569C33.5735 34.3569 26.2636 34.3569 20.7696 34.3569C18.9449 34.3569 17.1953 33.6328 15.9059 32.3422C14.6153 31.0528 13.8912 29.3031 13.8912 27.4785C13.8912 25.6538 14.6153 23.9042 15.9059 22.6148C17.1953 21.3242 18.9449 20.6 20.7696 20.6H22.6455C23.3359 20.6 23.8962 20.0398 23.8962 19.3494C23.8962 18.6591 23.3359 18.0988 22.6455 18.0988H20.7696C18.2821 18.0988 15.8959 19.0868 14.1376 20.8464C12.3779 22.6048 11.3899 24.991 11.3899 27.4785C11.3899 29.966 12.3779 32.3522 14.1376 34.1105C15.8959 35.8702 18.2821 36.8582 20.7696 36.8582H39.529C42.0165 36.8582 44.4026 37.8462 46.161 39.6058C47.9206 41.3642 48.9087 43.7504 48.9087 46.2379C48.9087 51.4179 44.7091 55.6175 39.529 55.6175H30.1493C29.4589 55.6175 28.8987 56.1778 28.8987 56.8682C28.8987 57.5585 29.4589 58.1188 30.1493 58.1188ZM26.3974 20.6H42.6555C43.3459 20.6 43.9062 20.0398 43.9062 19.3494C43.9062 18.6591 43.3459 18.0988 42.6555 18.0988H26.3974C25.7071 18.0988 25.1468 18.6591 25.1468 19.3494C25.1468 20.0398 25.7071 20.6 26.3974 20.6Z" fill="#EB662B"/>
<path d="M25.9867 58.1148C26.6774 58.1148 27.2374 57.5549 27.2374 56.8642C27.2374 56.1735 26.6774 55.6136 25.9867 55.6136C25.296 55.6136 24.7361 56.1735 24.7361 56.8642C24.7361 57.5549 25.296 58.1148 25.9867 58.1148Z" fill="#EB662B"/>
</g>
</g>
<defs>
<clipPath id="clip0_2103_4296">
<rect width="60" height="60" fill="white" transform="translate(0.97998 0.589966)"/>
</clipPath>
<clipPath id="clip1_2103_4296">
<rect width="60" height="60" fill="white" transform="translate(0.97998 0.589966)"/>
</clipPath>
</defs>
</svg>
