<svg width="60" height="61" viewBox="0 0 60 61" fill="none" xmlns="http://www.w3.org/2000/svg">
<g clip-path="url(#clip0_2103_4405)">
<g clip-path="url(#clip1_2103_4405)">
<path fill-rule="evenodd" clip-rule="evenodd" d="M28.4149 56.1518C28.7576 56.6974 29.3576 57.03 30.0029 57.03C30.6481 57.03 31.2481 56.6974 31.5908 56.1518C36.6659 48.06 52.3599 23.0357 55.9621 17.292C56.4017 16.5905 56.3294 15.6836 55.7833 15.0599C53.7177 12.7024 48.7627 7.04431 47.0927 5.13735C46.7364 4.73239 46.2222 4.49854 45.6822 4.49854C41.0553 4.49854 18.9504 4.49854 14.3235 4.49854C13.7835 4.49854 13.2693 4.73239 12.9131 5.13735C11.243 7.04431 6.28794 12.7024 4.22242 15.0599C3.67634 15.6836 3.6041 16.5905 4.04366 17.292C7.64576 23.0357 23.3399 48.06 28.4149 56.1518Z" fill="#FDF0EA"/>
<path fill-rule="evenodd" clip-rule="evenodd" d="M3.83826 16.1272H56.1919C56.1156 15.8771 55.9868 15.6407 55.8067 15.4344C53.7407 13.077 48.7819 7.41784 47.1112 5.51063C46.756 5.10418 46.2407 4.87158 45.7004 4.87158C41.0731 4.87158 18.9571 4.87158 14.3298 4.87158C13.7894 4.87158 13.2743 5.10418 12.9191 5.51063C11.2482 7.41784 6.28947 13.077 4.22344 15.4344C4.04336 15.6407 3.91454 15.8771 3.83826 16.1272Z" fill="white"/>
<path fill-rule="evenodd" clip-rule="evenodd" d="M22.5113 16.1272L30.0151 4.87158H14.3297C14.1509 4.87158 13.9746 4.89659 13.8058 4.94662L22.5113 16.1272ZM30.0151 4.87158L37.5189 16.1272L46.2244 4.94662C46.0557 4.89659 45.8793 4.87158 45.7005 4.87158H30.0151Z" fill="#FDF0EA"/>
<path fill-rule="evenodd" clip-rule="evenodd" d="M37.5189 16.1272H22.5114L30.0151 4.87158L37.5189 16.1272Z" fill="white"/>
<path fill-rule="evenodd" clip-rule="evenodd" d="M30.0151 57.4131L22.5114 16.1274H37.5189L30.0151 57.4131Z" fill="white"/>
<path fill-rule="evenodd" clip-rule="evenodd" d="M15.0049 49.9316L16.4857 52.2036L18.7576 53.6843L16.4857 55.1638L15.0049 57.4356L13.5256 55.1638L11.2537 53.6843L13.5256 52.2036L15.0049 49.9316Z" fill="#FDF0EA"/>
<path fill-rule="evenodd" clip-rule="evenodd" d="M7.50498 34.9316L8.98576 37.2036L11.2576 38.6843L8.98576 40.1638L7.50498 42.4356L6.02551 40.1638L3.75366 38.6843L6.02551 37.2036L7.50498 34.9316Z" fill="#FDF0EA"/>
<path fill-rule="evenodd" clip-rule="evenodd" d="M51.2542 41.1812L52.735 43.453L55.0069 44.9338L52.735 46.4133L51.2542 48.6851L49.7748 46.4133L47.5029 44.9338L49.7748 43.453L51.2542 41.1812Z" fill="#FDF0EA"/>
<path d="M23.1338 49.0843C23.8245 49.0843 24.3845 48.5244 24.3845 47.8336C24.3845 47.1429 23.8245 46.583 23.1338 46.583C22.4431 46.583 21.8832 47.1429 21.8832 47.8336C21.8832 48.5244 22.4431 49.0843 23.1338 49.0843Z" fill="#EB662B"/>
<path fill-rule="evenodd" clip-rule="evenodd" d="M5.339 17.3779H21.4758L28.5131 54.3202L26.317 50.8196C25.9506 50.2344 25.1777 50.0581 24.5936 50.4245C24.0083 50.791 23.832 51.5638 24.1985 52.1478C24.1985 52.1478 26.5522 55.9009 27.3662 57.1991C27.9378 58.1108 28.9382 58.6636 30.0151 58.6636C31.0919 58.6636 32.0923 58.1108 32.6639 57.1991L57.0449 18.3322C57.7789 17.1629 57.6576 15.6496 56.7472 14.6104C54.6811 12.2529 49.7237 6.59381 48.0528 4.68661C47.4588 4.01001 46.6021 3.62109 45.7004 3.62109H14.3298C13.428 3.62109 12.5713 4.01001 11.9773 4.68661C10.3065 6.59381 5.34901 12.2529 3.28297 14.6104C2.37252 15.6496 2.25121 17.1629 2.98532 18.3322L20.0626 45.5558C20.4302 46.1411 21.202 46.3174 21.7872 45.951C22.3712 45.5845 22.5488 44.8117 22.1824 44.2277L5.339 17.3779ZM53.6556 14.8768L46.4658 6.67136L40.0776 14.8768H48.7745C49.4648 14.8768 50.0251 15.437 50.0251 16.1274C50.0251 16.8176 49.4648 17.3779 48.7745 17.3779H38.5543L31.517 54.3202L54.6912 17.3779H52.5263C51.836 17.3779 51.2758 16.8176 51.2758 16.1274C51.2758 15.437 51.836 14.8768 52.5263 14.8768H53.6556ZM36.008 17.3779H24.0221L30.0151 48.8387L36.008 17.3779ZM6.37452 14.8768H19.9525L13.5643 6.67136L6.37452 14.8768ZM24.8488 14.8768H35.1814L30.0151 7.12661L24.8488 14.8768ZM43.7232 6.12234H32.3525L37.5977 13.99L43.7232 6.12234ZM27.6776 6.12234H16.307L22.4326 13.99L27.6776 6.12234Z" fill="#EB662B"/>
<path fill-rule="evenodd" clip-rule="evenodd" d="M16.0527 49.2485C15.8224 48.8944 15.4288 48.6812 15.0049 48.6812C14.5824 48.6812 14.1889 48.8944 13.9572 49.2485L12.6213 51.2992L10.5705 52.6366C10.2164 52.8669 10.0019 53.2605 10.0019 53.6843C10.0019 54.1068 10.2164 54.5003 10.5705 54.732L12.6213 56.068L13.9572 58.1188C14.1889 58.4728 14.5824 58.6874 15.0049 58.6874C15.4288 58.6874 15.8224 58.4728 16.0527 58.1188L17.3901 56.068L19.4407 54.732C19.7949 54.5003 20.008 54.1068 20.008 53.6843C20.008 53.2605 19.7949 52.8669 19.4407 52.6366L17.3901 51.2992L16.0527 49.2485ZM15.0049 52.2219L15.438 52.8867C15.5328 53.0314 15.6579 53.1564 15.8026 53.2512L16.4674 53.6843L15.8026 54.116C15.6579 54.2108 15.5328 54.3358 15.438 54.482L15.0049 55.1453L14.5732 54.482C14.4785 54.3358 14.3535 54.2108 14.2073 54.116L13.5439 53.6843L14.2073 53.2512C14.3535 53.1564 14.4785 53.0314 14.5732 52.8867L15.0049 52.2219Z" fill="#EB662B"/>
<path fill-rule="evenodd" clip-rule="evenodd" d="M8.55269 34.2485C8.32235 33.8944 7.9288 33.6812 7.50496 33.6812C7.08245 33.6812 6.68888 33.8944 6.45722 34.2485L5.12123 36.2992L3.07051 37.6366C2.71644 37.8669 2.50189 38.2605 2.50189 38.6843C2.50189 39.1068 2.71644 39.5003 3.07051 39.732L5.12123 41.068L6.45722 43.1188C6.68888 43.4728 7.08245 43.6874 7.50496 43.6874C7.9288 43.6874 8.32235 43.4728 8.55269 43.1188L9.89 41.068L11.9407 39.732C12.2949 39.5003 12.508 39.1068 12.508 38.6843C12.508 38.2605 12.2949 37.8669 11.9407 37.6366L9.89 36.2992L8.55269 34.2485ZM7.50496 37.2219L7.938 37.8867C8.03278 38.0314 8.15782 38.1564 8.30261 38.2512L8.96731 38.6843L8.30261 39.116C8.15782 39.2108 8.03278 39.3358 7.938 39.482L7.50496 40.1453L7.07323 39.482C6.97846 39.3358 6.85342 39.2108 6.70732 39.116L6.04392 38.6843L6.70732 38.2512C6.85342 38.1564 6.97846 38.0314 7.07323 37.8867L7.50496 37.2219Z" fill="#EB662B"/>
<path fill-rule="evenodd" clip-rule="evenodd" d="M52.3021 40.498C52.0717 40.1439 51.6781 39.9307 51.2543 39.9307C50.8317 39.9307 50.4383 40.1439 50.2065 40.498L48.8706 42.5487L46.8199 43.886C46.4658 44.1164 46.2512 44.51 46.2512 44.9338C46.2512 45.3563 46.4658 45.7498 46.8199 45.9815L48.8706 47.3175L50.2065 49.3682C50.4383 49.7223 50.8317 49.9369 51.2543 49.9369C51.6781 49.9369 52.0717 49.7223 52.3021 49.3682L53.6394 47.3175L55.6901 45.9815C56.0442 45.7498 56.2574 45.3563 56.2574 44.9338C56.2574 44.51 56.0442 44.1164 55.6901 43.886L53.6394 42.5487L52.3021 40.498ZM51.2543 43.4714L51.6873 44.1361C51.7821 44.2809 51.9072 44.4059 52.052 44.5007L52.7167 44.9338L52.052 45.3655C51.9072 45.4603 51.7821 45.5853 51.6873 45.7315L51.2543 46.3948L50.8226 45.7315C50.7278 45.5853 50.6028 45.4603 50.4566 45.3655L49.7933 44.9338L50.4566 44.5007C50.6028 44.4059 50.7278 44.2809 50.8226 44.1361L51.2543 43.4714Z" fill="#EB662B"/>
</g>
</g>
<defs>
<clipPath id="clip0_2103_4405">
<rect width="60" height="60" fill="white" transform="translate(0 0.939941)"/>
</clipPath>
<clipPath id="clip1_2103_4405">
<rect width="60" height="60" fill="white" transform="translate(0 0.939941)"/>
</clipPath>
</defs>
</svg>
