<svg width="60" height="61" viewBox="0 0 60 61" fill="none" xmlns="http://www.w3.org/2000/svg">
<g clip-path="url(#clip0_2103_4390)">
<g clip-path="url(#clip1_2103_4390)">
<path fill-rule="evenodd" clip-rule="evenodd" d="M30.0601 4.82666C21.0806 4.82666 13.8019 12.1053 13.8019 21.0848C13.8107 26.7626 16.7759 31.9827 21.5496 34.9129C22.3149 35.3832 23.1191 36.4087 23.2954 37.2891L23.7369 39.499C23.922 40.4232 24.7412 41.0948 25.6829 41.0948H34.4373C35.379 41.0948 36.1981 40.4232 36.3832 39.499L36.8247 37.2891C37.001 36.4087 37.8052 35.3832 38.5706 34.9142C43.3442 31.9827 46.3094 26.7626 46.3182 21.0848C46.3182 12.1053 39.0396 4.82666 30.0601 4.82666Z" fill="#FDF0EA"/>
<path fill-rule="evenodd" clip-rule="evenodd" d="M23.6469 48.8862L36.4632 48.9512L35.3714 55.502C35.1938 56.5663 34.2647 57.3529 33.1866 57.3529H26.9335C25.8555 57.3529 24.9262 56.5663 24.7486 55.502L23.6469 48.8862Z" fill="white"/>
<path fill-rule="evenodd" clip-rule="evenodd" d="M23.1817 46.0977H36.9385C37.2699 46.0977 37.5889 46.229 37.8227 46.4641C38.0578 46.698 38.1892 47.0169 38.1892 47.3483V48.5989C38.1892 49.2855 37.6251 49.8495 36.9385 49.8495H23.1817C22.8502 49.8495 22.5313 49.7182 22.2975 49.4831C22.0623 49.2492 21.931 48.9303 21.931 48.5989V47.3483C21.931 46.6617 22.4951 46.0977 23.1817 46.0977Z" fill="#FDF0EA"/>
<path fill-rule="evenodd" clip-rule="evenodd" d="M30.0601 4.82666C26.9523 4.82666 24.4323 12.1053 24.4323 21.0848C24.4348 26.7626 25.4614 31.9827 27.1147 34.9129C27.3786 35.3832 27.6576 36.4087 27.7189 37.2891L27.8715 39.499C27.9353 40.4232 28.2191 41.0948 28.5443 41.0948H31.5758C31.901 41.0948 32.1848 40.4232 32.2486 39.499L32.4011 37.2891C32.4625 36.4087 32.7413 35.3832 33.0052 34.9142C34.6585 31.9827 35.6854 26.7626 35.6879 21.0848C35.6879 12.1053 33.1679 4.82666 30.0601 4.82666Z" fill="white"/>
<path fill-rule="evenodd" clip-rule="evenodd" d="M11.4734 39.5492C10.793 38.9526 9.91504 38.5938 8.95581 38.5938C6.79723 38.5938 5.04761 40.4134 5.04761 42.6582C5.04761 44.9031 6.79723 46.7229 8.95581 46.7229H14.4273C16.1544 46.7229 17.5539 45.267 17.5539 43.4711C17.5539 41.6752 16.1544 40.2195 14.4273 40.2195C13.7595 40.2195 13.1392 40.4371 12.6314 40.8086L11.4734 39.5492Z" fill="#FDF0EA"/>
<path fill-rule="evenodd" clip-rule="evenodd" d="M51.8247 31.0713C52.3012 30.6536 52.9165 30.4023 53.5881 30.4023C55.0989 30.4023 56.3232 31.6767 56.3232 33.2474C56.3232 34.8182 55.0989 36.0926 53.5881 36.0926H49.7574C48.5493 36.0926 47.5688 35.0733 47.5688 33.8165C47.5688 32.5596 48.5493 31.5403 49.7574 31.5403C50.2252 31.5403 50.6591 31.6929 51.0143 31.953L51.8247 31.0713Z" fill="white"/>
<path fill-rule="evenodd" clip-rule="evenodd" d="M22.7414 51.0611L23.5156 55.7084C23.7932 57.3718 25.2464 58.6036 26.9335 58.6036H33.1866C34.8737 58.6036 36.327 57.3718 36.6046 55.7084L37.3787 51.0599C38.5443 50.8498 39.4398 49.8205 39.4398 48.5986V47.348C39.4398 46.6852 39.1759 46.0486 38.7069 45.5796C38.2379 45.1106 37.6013 44.8468 36.9385 44.8468H36.3132V41.7427C36.966 41.2775 37.4438 40.5734 37.6089 39.7442L38.0516 37.5344C38.1679 36.9528 38.7194 36.29 39.2247 35.9798C44.366 32.8233 47.5601 27.2017 47.5688 21.0874V21.0849C47.5688 11.415 39.7299 3.57617 30.0601 3.57617C20.3902 3.57617 12.5513 11.415 12.5513 21.0849V21.0861C12.5526 21.6539 12.5801 22.2155 12.6351 22.7732C12.7027 23.4598 13.3142 23.9626 14.0021 23.895C14.6887 23.8275 15.1914 23.216 15.1239 22.5281C15.0776 22.0516 15.0538 21.5701 15.0526 21.0836C15.0526 14.1952 19.6936 8.39233 26.0193 6.6277C24.3435 9.6392 23.1816 14.9818 23.1816 21.0849V21.0861C23.1854 27.0191 24.2985 32.4656 26.0243 35.5283C26.2307 35.8923 26.4233 36.6927 26.4708 37.3755L26.6234 39.5854C26.6296 39.6742 26.6384 39.7605 26.6471 39.8443H25.6829C25.334 39.8443 25.0313 39.5966 24.9638 39.254L24.5223 37.0441C24.2859 35.8648 23.2292 34.4778 22.2037 33.8475C20.1339 32.5769 18.4318 30.8385 17.2087 28.81C16.8522 28.2184 16.0818 28.0284 15.4915 28.3848C14.9 28.7412 14.7099 29.5103 15.0663 30.1019C16.4933 32.4681 18.4793 34.4966 20.8955 35.9798C21.4007 36.29 21.9523 36.9528 22.0686 37.5344L22.5113 39.7442C22.6764 40.5734 23.1541 41.2775 23.807 41.7427V44.8468H23.1816C21.8097 44.8468 20.6804 45.9761 20.6804 47.348V48.5986C20.6804 49.2615 20.9443 49.898 21.4133 50.367C21.7772 50.7309 22.2412 50.9711 22.7414 51.0611ZM34.8375 51.0999H34.396C33.7057 51.0999 33.1454 50.5396 33.1454 49.8493C33.1454 49.1589 33.7057 48.5986 34.396 48.5986H36.9385V47.4481C36.8585 47.428 36.7447 47.348 36.9385 47.348H23.1816V48.4986C23.2617 48.5186 23.3755 48.5986 23.1816 48.5986H30.3777C31.0668 48.5986 31.6284 49.1589 31.6284 49.8493C31.6284 50.5396 31.0668 51.0999 30.3777 51.0999H25.2827L25.983 55.297C26.0593 55.7597 26.4645 56.1024 26.9335 56.1024H33.1866C33.6556 56.1024 34.0608 55.7597 34.1371 55.297L34.8375 51.0999ZM28.8095 44.8468V42.3455H26.3082V44.8468H28.8095ZM33.812 44.8468V42.3455H31.3107V44.8468H33.812ZM30.0601 6.07742C30.3865 6.07742 30.6779 6.27502 30.9718 6.55766C31.4395 7.00664 31.8635 7.67196 32.2524 8.49738C33.5931 11.335 34.4373 15.9185 34.4373 21.0849C34.4348 26.5076 33.4943 31.5001 31.916 34.299C31.5921 34.8755 31.2282 36.1236 31.1544 37.2029L31.0005 39.4128C30.9918 39.5504 30.963 39.7067 30.9318 39.8443H29.1884C29.1571 39.7067 29.1284 39.5504 29.1196 39.4128L28.9658 37.2029C28.892 36.1236 28.5281 34.8755 28.2042 34.299C26.6259 31.5001 25.6854 26.5076 25.6829 21.0849C25.6829 15.9185 26.5271 11.335 27.8677 8.49738C28.2567 7.67196 28.6806 7.00664 29.1484 6.55766C29.4423 6.27502 29.7337 6.07742 30.0601 6.07742ZM34.1009 6.6277C35.7767 9.6392 36.9385 14.9818 36.9385 21.0849V21.0861C36.936 27.0191 35.8217 32.4656 34.0958 35.5283C33.8895 35.8923 33.6969 36.6927 33.6494 37.3755L33.4968 39.5854C33.4905 39.6742 33.4818 39.7605 33.473 39.8443H34.4373C34.7862 39.8443 35.0888 39.5966 35.1564 39.254L35.5979 37.0441C35.8342 35.8648 36.891 34.4778 37.9153 33.8475C42.3225 31.1424 45.0588 26.325 45.0676 21.0836C45.0676 14.1964 40.4265 8.39233 34.1009 6.6277Z" fill="#EB662B"/>
<path fill-rule="evenodd" clip-rule="evenodd" d="M12.3951 38.704C12.3638 38.6702 12.3325 38.6389 12.2988 38.6089C11.3958 37.8185 10.229 37.3433 8.95582 37.3433C6.12066 37.3433 3.797 39.7095 3.797 42.6584C3.797 45.6074 6.12066 47.9736 8.95582 47.9736H14.4273C16.831 47.9736 18.8045 45.9713 18.8045 43.4713C18.8045 40.9713 16.831 38.9691 14.4273 38.9691C13.8896 38.9691 13.3743 39.0691 12.8978 39.2517L12.3951 38.704ZM10.6029 40.4498L11.711 41.6554C12.1412 42.1244 12.8553 42.1944 13.3693 41.8193C13.6695 41.6004 14.0334 41.4703 14.4273 41.4703C15.4779 41.4703 16.3033 42.3795 16.3033 43.4713C16.3033 44.5631 15.4779 45.4723 14.4273 45.4723H8.95582C7.47383 45.4723 6.29825 44.1992 6.29825 42.6584C6.29825 41.1177 7.47383 39.8445 8.95582 39.8445C9.57738 39.8445 10.149 40.0709 10.5992 40.4473L10.6029 40.4498Z" fill="#EB662B"/>
<path fill-rule="evenodd" clip-rule="evenodd" d="M51.0005 30.1307L50.7166 30.4283C50.4127 30.3383 50.0901 30.2895 49.7574 30.2895C47.8715 30.2895 46.3182 31.8553 46.3182 33.8163C46.3182 35.7773 47.8715 37.343 49.7574 37.343H53.5881C55.7754 37.343 57.5738 35.5221 57.5738 33.2473C57.5738 30.9724 55.7754 29.1514 53.5881 29.1514C52.6026 29.1514 51.6984 29.5179 51.0005 30.1307ZM52.6964 31.9716C52.9427 31.7728 53.2516 31.6527 53.5881 31.6527C54.421 31.6527 55.0726 32.3793 55.0726 33.2473C55.0726 34.1152 54.421 34.8418 53.5881 34.8418H49.7574C49.2259 34.8418 48.8194 34.3691 48.8194 33.8163C48.8194 33.2635 49.2259 32.7908 49.7574 32.7908C49.9512 32.7908 50.1301 32.8545 50.2764 32.9621C50.7904 33.3385 51.5045 33.2673 51.936 32.7995L52.6926 31.9741L52.6964 31.9716Z" fill="#EB662B"/>
<path d="M14.5951 27.2987C15.2861 27.2987 15.8462 26.7385 15.8462 26.0475C15.8462 25.3565 15.2861 24.7964 14.5951 24.7964C13.9041 24.7964 13.3439 25.3565 13.3439 26.0475C13.3439 26.7385 13.9041 27.2987 14.5951 27.2987Z" fill="#EB662B"/>
</g>
</g>
<defs>
<clipPath id="clip0_2103_4390">
<rect width="60" height="60" fill="white" transform="translate(0 0.939941)"/>
</clipPath>
<clipPath id="clip1_2103_4390">
<rect width="60" height="60" fill="white" transform="translate(0 0.939941)"/>
</clipPath>
</defs>
</svg>
