<svg width="60" height="61" viewBox="0 0 60 61" fill="none" xmlns="http://www.w3.org/2000/svg">
<g clip-path="url(#clip0_2103_4423)">
<g clip-path="url(#clip1_2103_4423)">
<path d="M38.7675 32.686V56.0113C38.7675 57.0088 37.6453 57.6323 36.7725 57.0088L30.0394 52.146L23.3063 57.0088C22.4335 57.6323 21.3113 57.0088 21.3113 56.0113V32.686H38.7675Z" fill="white"/>
<path d="M30.0394 39.6776C39.6802 39.6776 47.4956 31.8622 47.4956 22.2214C47.4956 12.5805 39.6802 4.76514 30.0394 4.76514C20.3986 4.76514 12.5831 12.5805 12.5831 22.2214C12.5831 31.8622 20.3986 39.6776 30.0394 39.6776Z" fill="#FDF0EA"/>
<path d="M31.2863 13.7425L32.5332 17.6078C32.6579 18.1065 33.1566 18.4806 33.7801 18.4806H37.7701C39.017 18.4806 39.5157 19.9769 38.5182 20.725L35.2763 23.0941C34.7776 23.4681 34.6529 23.9669 34.7776 24.4656L36.0244 28.3309C36.3985 29.4531 35.0269 30.4506 34.1541 29.7025L30.9123 27.3334C30.4135 26.9594 29.9148 26.9594 29.416 27.3334L26.1741 29.7025C25.1766 30.4506 23.9297 29.4531 24.3038 28.3309L25.5507 24.4656C25.6754 23.9669 25.5507 23.3435 25.0519 23.0941L21.8101 20.725C20.8126 19.9769 21.3113 18.4806 22.5582 18.4806H26.5482C27.047 18.4806 27.5457 18.1065 27.7951 17.6078L29.042 13.7425C29.1666 12.6203 30.9123 12.6203 31.2863 13.7425Z" fill="white"/>
<path d="M13.293 28.4504C13.9832 28.4504 14.5428 27.8908 14.5428 27.2005C14.5428 26.5103 13.9832 25.9507 13.293 25.9507C12.6027 25.9507 12.0431 26.5103 12.0431 27.2005C12.0431 27.8908 12.6027 28.4504 13.293 28.4504Z" fill="#EB662B"/>
<path fill-rule="evenodd" clip-rule="evenodd" d="M20.2562 38.2471C17.5349 36.5262 15.2875 34.125 13.7542 31.2811C13.4266 30.6745 13.6542 29.9154 14.262 29.5877C14.8698 29.2601 15.6289 29.4864 15.9566 30.0942C18.6967 35.1755 24.0669 38.631 30.24 38.631C39.1907 38.631 46.4568 31.3649 46.4568 22.4154C46.4568 18.3221 44.9373 14.5815 42.431 11.7263C41.9758 11.2086 42.0284 10.4169 42.5461 9.96165C43.0651 9.50642 43.8568 9.55771 44.312 10.0767C47.2035 13.3722 48.9581 17.6906 48.9581 22.4154C48.9581 29.0763 45.4701 34.9292 40.2237 38.2471V51.1898C40.2237 51.8801 39.6634 52.4404 38.9731 52.4404C38.2827 52.4404 37.7225 51.8801 37.7225 51.1898V39.5753C35.4313 40.577 32.9 41.1323 30.24 41.1323C27.5799 41.1323 25.0486 40.577 22.7575 39.5753V56.2261C22.7575 56.2186 22.77 56.2085 22.7763 56.206L29.5084 51.3449C29.9448 51.0285 30.5351 51.0285 30.9716 51.3449C30.9716 51.3449 37.7099 56.2111 37.7037 56.2073C37.7149 56.2148 37.7225 56.2386 37.7225 56.2261V54.9417C37.7225 54.2513 38.2827 53.6911 38.9731 53.6911C39.6634 53.6911 40.2237 54.2513 40.2237 54.9417V56.2261C40.2237 58.2196 37.9938 59.4877 36.2505 58.2421L36.2455 58.2383L30.24 53.9012L24.2345 58.2383L24.2295 58.2421C22.4861 59.4877 20.2562 58.2196 20.2562 56.2261V38.2471ZM14.0656 23.5872C14.1144 24.2751 13.5954 24.8742 12.9075 24.9229C12.2185 24.973 11.6194 24.454 11.5706 23.7649C11.5381 23.3196 11.5219 22.8694 11.5219 22.4154C11.5219 12.084 19.9098 3.69727 30.24 3.69727C34.227 3.69727 37.9251 4.94667 40.9628 7.07523C41.5281 7.47043 41.6657 8.25082 41.2692 8.8161C40.8728 9.38138 40.0924 9.51894 39.5271 9.12374C36.8958 7.28032 33.6929 6.19852 30.24 6.19852C21.2892 6.19852 14.0231 13.4647 14.0231 22.4154C14.0231 22.8094 14.0381 23.1995 14.0656 23.5872ZM26.7069 17.4217C26.7282 17.4042 26.7983 17.3454 26.8458 17.2854C26.8458 17.2854 28.0189 13.6473 28.0189 13.6523C28.1789 12.6955 28.8555 12.104 29.6884 11.9064C30.8127 11.6388 32.2285 12.1966 32.6762 13.541L33.9243 17.4117C33.9418 17.4167 33.9656 17.4217 33.9831 17.4217H37.9751C39.2157 17.4217 40.0686 18.1883 40.3788 19.1188C40.6889 20.0492 40.4663 21.1735 39.4683 21.9227C39.4683 21.9227 36.228 24.2901 36.2205 24.2964C36.2055 24.3101 36.1942 24.3251 36.193 24.3439C36.193 24.3439 37.4186 28.1445 37.4148 28.1333C37.7912 29.2601 37.3122 30.3319 36.4981 30.9259C35.6564 31.5412 34.4971 31.6363 33.5866 30.8871L30.3688 28.536L30.365 28.5322L30.36 28.536L27.1121 30.9084C25.0886 32.4129 22.5561 30.4069 23.3103 28.1445C23.3103 28.1445 24.5384 24.3389 24.5384 24.3339C24.5396 24.3289 24.5396 24.3239 24.5396 24.3189L21.2617 21.9227L21.2555 21.9189C20.2625 21.1736 20.0411 20.0492 20.3513 19.1188C20.6614 18.1883 21.5131 17.4217 22.7537 17.4217H26.7069ZM22.7637 19.9229C22.9488 20.0592 25.9216 22.2303 25.9166 22.2278C26.8683 22.7744 27.2109 23.9674 26.9621 24.9642L26.9521 25.0042L25.7177 28.8311C26.2392 28.4497 28.8755 26.5225 28.8755 26.5225C29.3683 26.156 29.871 25.9985 30.365 25.9985C30.8578 25.9985 31.3605 26.156 31.8545 26.5225L35.0124 28.8299L33.778 25.0042L33.768 24.9642C33.5254 23.9925 33.758 23.017 34.736 22.2828C34.736 22.2828 37.6887 20.1255 37.9651 19.9229H33.9831C32.7475 19.9229 31.8008 19.1288 31.5344 18.1508L30.365 14.524L29.1557 18.2733L29.1132 18.3584C28.6479 19.2876 27.6762 19.9229 26.747 19.9229H22.7637Z" fill="#EB662B"/>
</g>
</g>
<defs>
<clipPath id="clip0_2103_4423">
<rect width="60" height="60" fill="white" transform="translate(0 0.939941)"/>
</clipPath>
<clipPath id="clip1_2103_4423">
<rect width="60" height="60" fill="white" transform="translate(0 0.939941)"/>
</clipPath>
</defs>
</svg>
