<svg width="60" height="61" viewBox="0 0 60 61" fill="none" xmlns="http://www.w3.org/2000/svg">
<g clip-path="url(#clip0_2103_4381)">
<g clip-path="url(#clip1_2103_4381)">
<path fill-rule="evenodd" clip-rule="evenodd" d="M56.3682 32.1218C56.3682 32.936 55.8417 33.6576 55.0663 33.9065C53.2817 34.438 51.991 36.0988 51.991 38.0586C51.991 40.0183 53.2817 41.6791 55.0575 42.2356C55.8217 42.482 56.3407 43.1924 56.3407 43.9953C56.3682 44.8495 56.3682 45.9137 56.3682 46.8129C56.3682 47.8484 55.5278 48.6889 54.4923 48.6889C46.3219 48.6889 13.8882 48.6889 5.71786 48.6889C4.68234 48.6889 3.84192 47.8484 3.84192 46.8129C3.84192 45.9137 3.84192 44.8495 3.84192 43.9953C3.84192 43.1811 4.36843 42.4595 5.14382 42.2106C6.92846 41.6791 8.21911 40.0183 8.21911 38.0586C8.21911 36.0988 6.92847 34.438 5.15258 33.8815C4.38845 33.6351 3.86944 32.9247 3.86944 32.1218C3.84192 31.5215 3.84192 30.8387 3.84192 30.2384C3.84192 29.4242 4.36843 28.7026 5.14382 28.4538C6.92846 27.9222 8.21911 26.2614 8.21911 24.3017C8.21911 22.3419 6.92847 20.6811 5.15258 20.1246C4.38845 19.8782 3.86944 19.1678 3.86944 18.3649C3.84192 17.5108 3.84192 16.4465 3.84192 15.5473C3.84192 14.5118 4.68234 13.6714 5.71786 13.6714H54.4923C55.5278 13.6714 56.3682 14.5118 56.3682 15.5473V18.3649C56.3682 19.1791 55.8417 19.9007 55.0663 20.1496C53.2817 20.6811 51.991 22.3419 51.991 24.3017C51.991 26.2614 53.2817 27.9222 55.0575 28.4788C55.8217 28.7251 56.3407 29.4355 56.3407 30.2384C56.3682 30.8387 56.3682 31.5215 56.3682 32.1218Z" fill="#FDF0EA"/>
<path fill-rule="evenodd" clip-rule="evenodd" d="M32.1639 24.5548C32.5091 24.0242 33.1001 23.7046 33.7332 23.7046C34.3664 23.7046 34.9573 24.0242 35.3025 24.5548C35.6357 25.0629 35.9568 25.5558 36.195 25.9206C36.4467 26.305 36.8311 26.5839 37.2743 26.7045C37.6949 26.8176 38.2617 26.9714 38.8482 27.1312C39.4602 27.2955 39.9456 27.7583 40.1416 28.3613C40.3376 28.9628 40.2155 29.623 39.819 30.116C39.4376 30.5893 39.0683 31.0477 38.7954 31.3868C38.5075 31.7441 38.3612 32.1963 38.3839 32.6561C38.405 33.0903 38.4336 33.6782 38.4637 34.2843C38.4954 34.9174 38.206 35.5219 37.6934 35.8943C37.1824 36.2666 36.516 36.3556 35.9251 36.1294C35.3568 35.9139 34.8065 35.7043 34.401 35.549C33.9699 35.3862 33.4965 35.3862 33.0654 35.549C32.6599 35.7043 32.1096 35.9139 31.5413 36.1294C30.9504 36.3556 30.2841 36.2666 29.773 35.8943C29.2605 35.5219 28.971 34.9174 29.0027 34.2843C29.0328 33.6782 29.0615 33.0903 29.0826 32.6561C29.1052 32.1963 28.959 31.7441 28.671 31.3868C28.3982 31.0477 28.0288 30.5893 27.6474 30.116C27.251 29.623 27.1288 28.9628 27.3248 28.3613C27.5208 27.7583 28.0062 27.2955 28.6183 27.1312C29.2047 26.9714 29.7715 26.8176 30.1921 26.7045C30.6353 26.5839 31.0197 26.305 31.2715 25.9206C31.5097 25.5558 31.8307 25.0629 32.1639 24.5548Z" fill="white"/>
<path fill-rule="evenodd" clip-rule="evenodd" d="M22.6013 47.4379C23.2917 47.4379 23.8519 47.9981 23.8519 48.6885C23.8519 49.3788 23.2917 49.9391 22.6013 49.9391C21.911 49.9391 21.3507 49.3788 21.3507 48.6885C21.3507 47.9981 21.911 47.4379 22.6013 47.4379ZM52.6163 14.9216H54.4922C54.8374 14.9216 55.1176 15.2017 55.1176 15.5469V18.3646C55.1176 18.6272 54.9525 18.8611 54.7074 18.9511C52.4049 19.6414 50.7404 21.7775 50.7404 24.3013C50.7404 26.82 52.4 28.9549 54.6836 29.6715C54.9225 29.749 55.09 29.9791 55.09 30.238C55.09 30.258 55.09 30.2768 55.0913 30.2955C55.1176 30.8771 55.1176 31.5399 55.1176 32.1214C55.1176 32.3841 54.9525 32.6179 54.7074 32.708C52.4049 33.3983 50.7404 35.5344 50.7404 38.0582C50.7404 40.5769 52.4 42.7117 54.6836 43.4284C54.9225 43.5059 55.09 43.736 55.09 43.9949V44.0362C55.1176 44.8778 55.1176 45.9258 55.1176 46.8125C55.1176 47.1577 54.8374 47.4379 54.4922 47.4379H26.3532C25.6628 47.4379 25.1026 47.9981 25.1026 48.6885C25.1026 49.3788 25.6628 49.9391 26.3532 49.9391H54.4922C56.2194 49.9391 57.6188 48.5397 57.6188 46.8125C57.6188 45.9046 57.6188 44.8303 57.5913 43.9649C57.5813 42.6354 56.7146 41.4549 55.4402 41.0447C55.4377 41.0447 55.4352 41.0434 55.4327 41.0421C54.1633 40.6444 53.2416 39.4576 53.2416 38.0582C53.2416 36.6662 54.1546 35.4831 55.4227 35.1054C55.4315 35.1029 55.4402 35.1004 55.449 35.0967C56.7421 34.6815 57.6188 33.4796 57.6188 32.1214C57.6188 31.5124 57.6188 30.8195 57.5913 30.208C57.5775 28.8748 56.7121 27.6967 55.4402 27.2878C55.4377 27.2878 55.4352 27.2865 55.4327 27.2853C54.1633 26.8876 53.2416 25.7007 53.2416 24.3013C53.2416 22.9093 54.1546 21.7263 55.4227 21.3486C55.4315 21.3461 55.4402 21.3435 55.449 21.3398C56.7421 20.9246 57.6188 19.7227 57.6188 18.3646V15.5469C57.6188 13.8198 56.2194 12.4204 54.4922 12.4204H52.6163C51.926 12.4204 51.3657 12.9806 51.3657 13.671C51.3657 14.3613 51.926 14.9216 52.6163 14.9216ZM17.5988 47.4379V44.3013C17.5988 43.6109 17.0385 43.0507 16.3482 43.0507C15.6578 43.0507 15.0976 43.6109 15.0976 44.3013V47.4379H5.71787C5.3727 47.4379 5.09256 47.1577 5.09256 46.8125V43.9949C5.09256 43.7323 5.25764 43.4984 5.50277 43.4084C7.80517 42.718 9.46975 40.5819 9.46975 38.0582C9.46975 35.5394 7.81017 33.4046 5.52653 32.688C5.28766 32.6104 5.12008 32.3803 5.12008 32.1214C5.12008 32.1014 5.12007 32.0827 5.11882 32.0639C5.09255 31.4824 5.09256 30.8196 5.09256 30.238C5.09256 29.9754 5.25764 29.7415 5.50277 29.6515C7.80517 28.9611 9.46975 26.8251 9.46975 24.3013C9.46975 21.7825 7.81017 19.6477 5.52653 18.9311C5.28766 18.8536 5.12008 18.6234 5.12008 18.3646C5.12008 18.3508 5.12008 18.3371 5.12008 18.3233C5.09256 17.4816 5.09256 16.4336 5.09256 15.5469C5.09256 15.2017 5.3727 14.9216 5.71787 14.9216H15.0976V19.2888C15.0976 19.9791 15.6578 20.5394 16.3482 20.5394C17.0385 20.5394 17.5988 19.9791 17.5988 19.2888V14.9216H48.8644C49.5548 14.9216 50.1151 14.3613 50.1151 13.671C50.1151 12.9806 49.5548 12.4204 48.8644 12.4204C48.8644 12.4204 12.5463 12.4204 5.71787 12.4204C3.99076 12.4204 2.59131 13.8198 2.59131 15.5469C2.59131 16.4549 2.59131 17.5292 2.61883 18.3946C2.62883 19.724 3.49552 20.9046 4.7699 21.3148C4.7724 21.3148 4.7749 21.3161 4.7774 21.3173C6.04679 21.715 6.9685 22.9018 6.9685 24.3013C6.9685 25.6932 6.05554 26.8763 4.7874 27.254C4.77865 27.2565 4.7699 27.259 4.76114 27.2628C3.468 27.678 2.59131 28.8798 2.59131 30.238C2.59131 30.8471 2.59131 31.5399 2.61883 32.1515C2.63258 33.4846 3.49802 34.6627 4.7699 35.0717C4.7724 35.0717 4.7749 35.0729 4.7774 35.0742C6.04679 35.4719 6.9685 36.6587 6.9685 38.0582C6.9685 39.4501 6.05554 40.6332 4.7874 41.0109C4.77865 41.0134 4.7699 41.0159 4.76114 41.0197C3.468 41.4349 2.59131 42.6367 2.59131 43.9949V46.8125C2.59131 48.5397 3.99076 49.9391 5.71787 49.9391H18.8494C19.5398 49.9391 20.1001 49.3788 20.1001 48.6885C20.1001 47.9981 19.5398 47.4379 18.8494 47.4379H17.5988ZM15.0976 34.2963V39.2988C15.0976 39.9891 15.6578 40.5494 16.3482 40.5494C17.0385 40.5494 17.5988 39.9891 17.5988 39.2988V34.2963C17.5988 33.6059 17.0385 33.0457 16.3482 33.0457C15.6578 33.0457 15.0976 33.6059 15.0976 34.2963ZM15.0976 24.2913V29.2938C15.0976 29.9841 15.6578 30.5444 16.3482 30.5444C17.0385 30.5444 17.5988 29.9841 17.5988 29.2938V24.2913C17.5988 23.6009 17.0385 23.0407 16.3482 23.0407C15.6578 23.0407 15.0976 23.6009 15.0976 24.2913Z" fill="#EB662B"/>
<path fill-rule="evenodd" clip-rule="evenodd" d="M31.2226 24.1077L30.3297 25.4742C30.2452 25.6024 30.117 25.6959 29.9692 25.7351L28.3946 26.162C27.375 26.438 26.5651 27.2102 26.2378 28.2147C25.912 29.2177 26.1141 30.3187 26.7762 31.1407L27.8004 32.4122C27.8969 32.5313 27.9452 32.6821 27.9376 32.8345L27.8562 34.4649C27.8049 35.5191 28.2875 36.5297 29.1412 37.1496C29.9964 37.7695 31.1049 37.9173 32.0913 37.5417L33.6162 36.961C33.761 36.9067 33.9178 36.9067 34.0611 36.961L35.5875 37.5417C36.5739 37.9173 37.6824 37.7695 38.5376 37.1496C39.3913 36.5297 39.8739 35.5191 39.8226 34.4649L39.7412 32.8345C39.7336 32.6821 39.7819 32.5313 39.8784 32.4122L40.9025 31.1407C41.5647 30.3187 41.7668 29.2177 41.441 28.2147C41.1137 27.2102 40.3038 26.438 39.2842 26.162L37.7096 25.7351C37.5618 25.6959 37.4336 25.6024 37.3491 25.4742L36.4562 24.1077C35.8801 23.2239 34.8952 22.6914 33.8394 22.6914C32.7836 22.6914 31.7987 23.2239 31.2226 24.1077ZM33.316 25.4757C33.4322 25.2992 33.6282 25.1922 33.8394 25.1922C34.0506 25.1922 34.2466 25.2992 34.3628 25.4757L35.2556 26.8422C35.6749 27.4847 36.316 27.9492 37.055 28.1498L38.6311 28.5767C38.8347 28.6325 38.9961 28.7863 39.061 28.9869C39.1273 29.1875 39.0866 29.4077 38.9539 29.5721L37.9298 30.8436C37.4502 31.4408 37.2043 32.1935 37.2435 32.9597L37.3235 34.5886C37.334 34.7997 37.2375 35.0018 37.0671 35.1255C36.8966 35.2507 36.6749 35.2794 36.4773 35.2039L34.9525 34.6233C34.2346 34.3518 33.4442 34.3518 32.7263 34.6233L31.2015 35.2039C31.0039 35.2794 30.7822 35.2507 30.6117 35.1255C30.4413 35.0018 30.3448 34.7997 30.3553 34.5886L30.4353 32.9597C30.4745 32.1935 30.2286 31.4408 29.749 30.8436L28.7249 29.5721C28.5922 29.4077 28.5515 29.1875 28.6178 28.9869C28.6827 28.7863 28.8441 28.6325 29.0477 28.5767L30.6238 28.1498C31.3628 27.9492 32.0039 27.4847 32.4232 26.8422L33.316 25.4757Z" fill="#EB662B"/>
</g>
</g>
<defs>
<clipPath id="clip0_2103_4381">
<rect width="60" height="60" fill="white" transform="translate(0 0.939941)"/>
</clipPath>
<clipPath id="clip1_2103_4381">
<rect width="60" height="60" fill="white" transform="translate(0 0.939941)"/>
</clipPath>
</defs>
</svg>
